<svg width="205" height="205" viewBox="0 0 205 205" fill="none" xmlns="http://www.w3.org/2000/svg">
<path d="M46.125 30.75C42.0473 30.75 38.1366 32.3699 35.2532 35.2532C32.3699 38.1366 30.75 42.0473 30.75 46.125V66.625C30.75 67.9842 30.21 69.2878 29.2489 70.2489C28.2878 71.21 26.9842 71.75 25.625 71.75C24.2658 71.75 22.9622 71.21 22.0011 70.2489C21.04 69.2878 20.5 67.9842 20.5 66.625V46.125C20.5 39.3288 23.1998 32.811 28.0054 28.0054C32.811 23.1998 39.3288 20.5 46.125 20.5H66.625C67.9842 20.5 69.2878 21.04 70.2489 22.0011C71.21 22.9622 71.75 24.2658 71.75 25.625C71.75 26.9842 71.21 28.2878 70.2489 29.2489C69.2878 30.21 67.9842 30.75 66.625 30.75H46.125ZM46.125 174.25C42.0473 174.25 38.1366 172.63 35.2532 169.747C32.3699 166.863 30.75 162.953 30.75 158.875V138.375C30.75 137.016 30.21 135.712 29.2489 134.751C28.2878 133.79 26.9842 133.25 25.625 133.25C24.2658 133.25 22.9622 133.79 22.0011 134.751C21.04 135.712 20.5 137.016 20.5 138.375V158.875C20.5 165.671 23.1998 172.189 28.0054 176.995C32.811 181.8 39.3288 184.5 46.125 184.5H66.625C67.9842 184.5 69.2878 183.96 70.2489 182.999C71.21 182.038 71.75 180.734 71.75 179.375C71.75 178.016 71.21 176.712 70.2489 175.751C69.2878 174.79 67.9842 174.25 66.625 174.25H46.125ZM174.25 46.125C174.25 42.0473 172.63 38.1366 169.747 35.2532C166.863 32.3699 162.953 30.75 158.875 30.75H138.375C137.016 30.75 135.712 30.21 134.751 29.2489C133.79 28.2878 133.25 26.9842 133.25 25.625C133.25 24.2658 133.79 22.9622 134.751 22.0011C135.712 21.04 137.016 20.5 138.375 20.5H158.875C165.671 20.5 172.189 23.1998 176.995 28.0054C181.8 32.811 184.5 39.3288 184.5 46.125V66.625C184.5 67.9842 183.96 69.2878 182.999 70.2489C182.038 71.21 180.734 71.75 179.375 71.75C178.016 71.75 176.712 71.21 175.751 70.2489C174.79 69.2878 174.25 67.9842 174.25 66.625V46.125ZM158.875 174.25C162.953 174.25 166.863 172.63 169.747 169.747C172.63 166.863 174.25 162.953 174.25 158.875V138.375C174.25 137.016 174.79 135.712 175.751 134.751C176.712 133.79 178.016 133.25 179.375 133.25C180.734 133.25 182.038 133.79 182.999 134.751C183.96 135.712 184.5 137.016 184.5 138.375V158.875C184.5 165.671 181.8 172.189 176.995 176.995C172.189 181.8 165.671 184.5 158.875 184.5H138.375C137.016 184.5 135.712 183.96 134.751 182.999C133.79 182.038 133.25 180.734 133.25 179.375C133.25 178.016 133.79 176.712 134.751 175.751C135.712 174.79 137.016 174.25 138.375 174.25H158.875ZM115.312 105.657C115.312 112.627 109.572 118.265 102.5 118.265C100.831 118.278 99.1755 117.963 97.6282 117.336C96.081 116.71 94.6723 115.785 93.4825 114.614C92.2928 113.444 91.3453 112.05 90.6941 110.513C90.043 108.976 89.7009 107.326 89.6875 105.657C89.6875 98.687 95.4275 93.0392 102.5 93.0392C109.572 93.0392 115.312 98.6972 115.312 105.657ZM51.25 93.0392V130.882C51.25 137.862 56.99 143.5 64.0625 143.5H140.938C148.01 143.5 153.75 137.852 153.75 130.893V93.029C153.75 86.059 148.01 80.4215 140.938 80.4215H128.125L119.115 67.1068C117.934 65.3701 116.344 63.9504 114.485 62.9727C112.626 61.995 110.556 61.4892 108.455 61.5H96.5447C92.2602 61.5 88.2628 63.6115 85.8848 67.117L76.875 80.4215H64.0625C56.99 80.4215 51.25 86.0795 51.25 93.0392ZM102.5 80.4215C116.645 80.4215 128.125 91.7067 128.125 105.636C128.125 119.576 116.645 130.872 102.5 130.872C88.355 130.872 76.875 119.577 76.875 105.647C76.875 91.7068 88.355 80.4112 102.5 80.4112" fill="#726B6B"/>
</svg>
