<svg width="197" height="197" viewBox="0 0 197 197" fill="none" xmlns="http://www.w3.org/2000/svg">
<g clip-path="url(#clip0_106_208)">
<path d="M24.7618 110.812L18.6055 98.4999H61.6993L56.7743 86.1874H16.5534L10.3972 73.8749H74.4222L69.4972 61.5624H9.24801L2.18884 49.2499H32.9701C32.9701 44.8959 34.6997 40.7203 37.7784 37.6416C40.8571 34.5629 45.0328 32.8333 49.3868 32.8333H147.887V65.6666H172.512L197.137 98.4999V139.542H180.72C180.72 146.073 178.126 152.336 173.508 156.954C168.89 161.572 162.626 164.167 156.095 164.167C149.564 164.167 143.301 161.572 138.683 156.954C134.065 152.336 131.47 146.073 131.47 139.542H98.6368C98.6368 146.073 96.0424 152.336 91.4243 156.954C86.8062 161.572 80.5427 164.167 74.0118 164.167C67.4808 164.167 61.2173 161.572 56.5993 156.954C51.9812 152.336 49.3868 146.073 49.3868 139.542H32.9701V110.812H24.7618ZM156.095 151.854C159.361 151.854 162.492 150.557 164.801 148.248C167.11 145.939 168.408 142.807 168.408 139.542C168.408 136.276 167.11 133.144 164.801 130.835C162.492 128.526 159.361 127.229 156.095 127.229C152.83 127.229 149.698 128.526 147.389 130.835C145.08 133.144 143.783 136.276 143.783 139.542C143.783 142.807 145.08 145.939 147.389 148.248C149.698 150.557 152.83 151.854 156.095 151.854ZM168.408 77.9791H147.887V98.4999H184.496L168.408 77.9791ZM74.0118 151.854C77.2772 151.854 80.409 150.557 82.718 148.248C85.0271 145.939 86.3243 142.807 86.3243 139.542C86.3243 136.276 85.0271 133.144 82.718 130.835C80.409 128.526 77.2772 127.229 74.0118 127.229C70.7463 127.229 67.6146 128.526 65.3055 130.835C62.9965 133.144 61.6993 136.276 61.6993 139.542C61.6993 142.807 62.9965 145.939 65.3055 148.248C67.6146 150.557 70.7463 151.854 74.0118 151.854Z" fill="#2F80ED"/>
</g>
<defs>
<clipPath id="clip0_106_208">
<rect width="197" height="197" rx="9" fill="white"/>
</clipPath>
</defs>
</svg>
