<svg width="198" height="198" viewBox="0 0 198 198" fill="none" xmlns="http://www.w3.org/2000/svg">
<g filter="url(#filter0_d_106_256)">
<path d="M37.125 37.125C37.125 30.5609 39.7326 24.2656 44.3741 19.6241C49.0156 14.9826 55.3109 12.375 61.875 12.375C68.4391 12.375 74.7344 14.9826 79.3759 19.6241C84.0174 24.2656 86.625 30.5609 86.625 37.125C86.625 43.6891 84.0174 49.9844 79.3759 54.6259C74.7344 59.2674 68.4391 61.875 61.875 61.875C55.3109 61.875 49.0156 59.2674 44.3741 54.6259C39.7326 49.9844 37.125 43.6891 37.125 37.125ZM121.015 56.727L121.535 57.123C126.785 61.015 133.362 62.6722 139.83 61.7328C146.298 60.7935 152.132 57.3339 156.059 52.1091C159.985 46.8843 161.686 40.3184 160.789 33.8444C159.893 27.3704 156.472 21.5138 151.273 17.5528C146.074 13.5919 139.52 11.848 133.04 12.7019C126.56 13.5558 120.681 16.9381 116.686 22.1106C112.691 27.2831 110.903 33.826 111.715 40.3113C112.526 46.7965 115.869 52.6977 121.015 56.727ZM77.5665 74.25C79.1208 71.3068 81.2528 68.7073 83.835 66.6071C86.4172 64.5069 89.3964 62.949 92.5945 62.0268C95.7927 61.1046 99.144 60.8369 102.448 61.2398C105.752 61.6427 108.941 62.7079 111.823 64.3716C114.706 66.0353 117.224 68.2634 119.226 70.9226C121.227 73.5818 122.672 76.6175 123.474 79.848C124.275 83.0784 124.417 86.4374 123.89 89.7239C123.364 93.0104 122.18 96.157 120.409 98.9753C117.002 104.397 111.627 108.288 105.412 109.83C99.1972 111.371 92.6266 110.445 87.0807 107.244C81.5348 104.043 77.4452 98.8179 75.6711 92.6654C73.8969 86.5128 74.5763 79.9122 77.5665 74.25ZM30.9375 74.25H63.9788C61.7754 80.5305 61.2952 87.2866 62.5879 93.8156C63.8806 100.345 66.8992 106.408 71.3295 111.375H68.0625C61.682 111.372 55.4567 113.342 50.2395 117.016C45.0223 120.689 41.0683 125.885 38.9194 131.893C34.7629 130.229 30.8729 127.965 27.3735 125.173C18.0675 117.686 12.375 106.623 12.375 92.8125C12.375 87.8894 14.3307 83.168 17.8118 79.6868C21.293 76.2057 26.0144 74.25 30.9375 74.25ZM129.938 111.375C143.364 111.375 154.799 119.926 159.081 131.893C163.288 130.173 167.174 127.933 170.626 125.173C179.932 117.686 185.625 106.623 185.625 92.8125C185.625 87.8894 183.669 83.168 180.188 79.6868C176.707 76.2057 171.986 74.25 167.062 74.25H134.021C135.382 78.1234 136.125 82.2937 136.125 86.625C136.125 95.757 132.759 104.569 126.671 111.375H129.938ZM147.102 135.234C148.005 137.412 148.5 139.813 148.5 142.312C148.5 156.123 142.82 167.186 133.502 174.673C124.332 182.036 112.031 185.625 99 185.625C85.9691 185.625 73.6684 182.036 64.4985 174.673C55.1925 167.186 49.5 156.123 49.5 142.312C49.4935 139.873 49.9691 137.456 50.8997 135.201C51.8302 132.946 53.1973 130.897 54.9223 129.172C56.6473 127.447 58.6962 126.08 60.9512 125.15C63.2063 124.219 65.623 123.743 68.0625 123.75H129.938C133.614 123.749 137.208 124.84 140.264 126.885C143.32 128.929 145.7 131.835 147.102 135.234Z" fill="#2F80ED"/>
</g>
<defs>
<filter id="filter0_d_106_256" x="-4" y="0" width="206" height="206" filterUnits="userSpaceOnUse" color-interpolation-filters="sRGB">
<feFlood flood-opacity="0" result="BackgroundImageFix"/>
<feColorMatrix in="SourceAlpha" type="matrix" values="0 0 0 0 0 0 0 0 0 0 0 0 0 0 0 0 0 0 127 0" result="hardAlpha"/>
<feOffset dy="4"/>
<feGaussianBlur stdDeviation="2"/>
<feComposite in2="hardAlpha" operator="out"/>
<feColorMatrix type="matrix" values="0 0 0 0 0 0 0 0 0 0 0 0 0 0 0 0 0 0 0.25 0"/>
<feBlend mode="normal" in2="BackgroundImageFix" result="effect1_dropShadow_106_256"/>
<feBlend mode="normal" in="SourceGraphic" in2="effect1_dropShadow_106_256" result="shape"/>
</filter>
</defs>
</svg>
